<?xml version="1.0" standalone="no"?>
<!DOCTYPE svg PUBLIC "-//W3C//DTD SVG 1.1//EN" "http://www.w3.org/Graphics/SVG/1.1/DTD/svg11.dtd" >
<svg xmlns="http://www.w3.org/2000/svg">
<metadata>Generated by IcoMoon</metadata>
<defs>
<font id="icomoon" horiz-adv-x="1024">
<font-face units-per-em="1024" ascent="960" descent="-64" />
<missing-glyph horiz-adv-x="1024" />
<glyph unicode="&#x20;" horiz-adv-x="512" d="" />
<glyph unicode="&#xe900;" glyph-name="map" d="M503.795 960c-222.732 0-404.045-181.313-404.045-404.045 0-25.36 2.324-50.928 7.185-75.866 0.211-1.478 1.056-5.917 2.747-13.523 6.128-27.261 15.215-54.099 27.049-79.667 43.532-102.493 139.26-259.926 349.314-428.56 5.283-4.227 11.622-6.339 17.962-6.339s12.678 2.112 17.962 6.339c209.843 168.634 305.782 326.067 349.315 428.56 11.834 25.568 20.918 52.195 27.046 79.667 1.693 7.606 2.538 12.045 2.749 13.523 4.65 24.938 7.184 50.506 7.184 75.866-0.422 222.732-181.734 404.045-404.467 404.045zM844.445 490.022c0-0.422-0.211-0.845-0.211-1.267-0.211-1.056-0.845-4.227-1.904-9.088 0-0.211 0-0.211 0-0.422-5.28-23.667-13.101-46.701-23.456-68.89-0.211-0.211-0.211-0.634-0.422-0.845-39.517-93.616-126.157-236.47-314.656-392.211-188.498 155.741-275.14 298.595-314.657 392.211-0.211 0.211-0.211 0.634-0.422 0.845-10.144 21.978-17.963 45.222-23.457 68.89 0 0.211 0 0.211 0 0.422-1.268 4.861-1.691 8.032-1.902 9.088 0 0.422-0.211 0.845-0.211 1.478-4.227 21.766-6.34 43.744-6.34 65.933 0 191.245 155.743 346.988 346.988 346.988s346.989-155.743 346.989-346.988c0-22.4-2.112-44.589-6.339-66.144zM503.792 808.062c-141.373 0-256.542-115.17-256.542-256.542 0-141.376 115.169-256.544 256.542-256.544 141.376 0 256.544 115.168 256.544 256.544 0 141.373-115.168 256.542-256.544 256.542zM503.792 352.032c-110.096 0-199.485 89.6-199.485 199.488 0 109.886 89.601 199.486 199.485 199.486 109.888 0 199.488-89.6 199.488-199.486 0-109.888-89.389-199.488-199.488-199.488z" />
<glyph unicode="&#xe901;" glyph-name="envelope" d="M892.947 839.555h-761.684c-67.993 0-123.263-55.27-123.263-123.262v-520.58c0-67.994 55.27-123.264 123.263-123.264h761.473c67.994 0 123.264 55.27 123.264 123.264v520.372c0.208 67.993-55.062 123.471-123.053 123.471zM959.894 195.712c0-36.918-30.032-66.95-66.947-66.95h-761.684c-36.916 0-66.95 30.032-66.95 66.95v520.372c0 36.916 30.033 66.95 66.95 66.95h761.473c36.918 0 66.95-30.034 66.95-66.95v-520.372h0.208zM643.68 462.467l246.525 221.079c11.469 10.428 12.512 28.156 2.086 39.836-10.429 11.471-28.157 12.514-39.837 2.086l-339.965-305.132-66.323 59.232c-0.208 0.208-0.416 0.419-0.416 0.627-1.459 1.459-2.922 2.71-4.589 3.962l-269.885 241.52c-11.68 10.428-29.408 9.386-39.836-2.294s-9.386-29.408 2.294-39.836l249.446-222.957-248.403-232.55c-11.262-10.637-11.888-28.365-1.252-39.837 5.631-5.84 13.14-8.97 20.648-8.97 6.883 0 13.765 2.506 19.188 7.51l252.158 235.888 68.41-61.11c5.421-4.797 12.096-7.091 18.771-7.091 6.672 0 13.555 2.502 18.768 7.299l70.288 62.989 250.698-238.182c5.421-5.216 12.512-7.718 19.395-7.718 7.51 0 14.81 2.922 20.442 8.762 10.637 11.261 10.218 29.197-1.043 39.834l-247.568 235.056z" />
<glyph unicode="&#xe902;" glyph-name="phone" d="M796.656 335.581c-20.637 21.488-45.53 32.976-71.91 32.976-26.166 0-51.27-11.277-72.758-32.765l-67.226-67.014c-5.533 2.979-11.066 5.744-16.384 8.509-7.658 3.83-14.89 7.446-21.059 11.277-62.973 39.997-120.202 92.118-175.091 159.558-26.592 33.616-44.464 61.91-57.441 90.63 17.444 15.955 33.613 32.55 49.357 48.506 5.955 5.958 11.914 12.128 17.869 18.083 44.678 44.677 44.678 102.544 0 147.22l-58.077 58.079c-6.596 6.595-13.404 13.403-19.787 20.211-12.764 13.19-26.168 26.806-39.996 39.571-20.636 20.424-45.315 31.274-71.27 31.274s-51.059-10.85-72.333-31.274c-0.213-0.213-0.213-0.213-0.426-0.426l-72.333-72.972c-27.231-27.231-42.762-60.42-46.166-98.927-5.106-62.12 13.19-119.989 27.231-157.858 34.465-92.97 85.949-179.13 162.75-271.462 93.182-111.264 205.299-199.13 333.372-261.037 48.931-23.19 114.243-50.634 187.216-55.315 4.467-0.211 9.149-0.426 13.402-0.426 49.146 0 90.419 17.658 122.755 52.762 0.211 0.426 0.637 0.637 0.851 1.062 11.062 13.405 23.827 25.53 37.229 38.509 9.149 8.72 18.509 17.869 27.658 27.443 21.062 21.914 32.125 47.443 32.125 73.61 0 26.381-11.277 51.696-32.762 72.973l-116.797 117.222zM872.816 111.558c-0.211-0.211-0.211 0 0 0-8.294-8.934-16.806-17.018-25.952-25.955-13.83-13.19-27.872-27.018-41.062-42.547-21.485-22.976-46.803-33.827-79.99-33.827-3.19 0-6.595 0-9.786 0.211-63.187 4.045-121.904 28.723-165.942 49.782-120.413 58.294-226.147 141.053-314.012 245.936-72.546 87.437-121.052 168.282-153.177 255.082-19.785 52.973-27.019 94.245-23.828 133.178 2.128 24.891 11.701 45.528 29.359 63.185l72.546 72.546c10.425 9.786 21.487 15.105 32.337 15.105 13.403 0 24.253-8.084 31.061-14.892 0.212-0.213 0.425-0.426 0.638-0.638 12.978-12.126 25.317-24.678 38.294-38.081 6.595-6.808 13.403-13.616 20.211-20.636l58.081-58.080c22.55-22.551 22.55-43.4 0-65.951-6.17-6.171-12.128-12.34-18.298-18.295-17.87-18.298-34.89-35.315-53.399-51.91-0.426-0.426-0.851-0.637-1.064-1.062-18.296-18.298-14.892-36.17-11.063-48.294 0.212-0.64 0.425-1.277 0.638-1.914 15.105-36.592 36.38-71.059 68.717-112.118l0.211-0.211c58.72-72.336 120.627-128.714 188.918-171.901 8.723-5.53 17.658-9.997 26.166-14.253 7.661-3.83 14.893-7.446 21.062-11.277 0.851-0.422 1.702-1.062 2.554-1.488 7.235-3.616 14.042-5.318 21.062-5.318 17.658 0 28.72 11.062 32.336 14.678l72.758 72.758c7.235 7.235 18.723 15.958 32.125 15.958 13.19 0 24.042-8.298 30.637-15.533 0.211-0.211 0.211-0.211 0.426-0.426l117.222-117.222c21.914-21.699 21.914-44.038 0.211-66.589zM544.765 720.22c55.741-9.361 106.374-35.741 146.797-76.163 40.419-40.422 66.589-91.056 76.16-146.794 2.342-14.042 14.467-23.827 28.298-23.827 1.699 0 3.19 0.211 4.893 0.426 15.741 2.55 26.166 17.443 23.613 33.187-11.488 67.44-43.398 128.925-92.118 177.643-48.717 48.719-110.202 80.63-177.642 92.119-15.744 2.553-30.422-7.872-33.187-23.402-2.768-15.531 7.446-30.636 23.187-33.188zM1006.883 515.35c-18.934 111.053-71.267 212.107-151.686 292.524-80.416 80.418-181.472 132.753-292.525 151.688-15.53 2.766-30.208-7.872-32.976-23.402-2.554-15.743 7.872-30.423 23.616-33.188 99.139-16.807 189.555-63.824 261.462-135.519 71.91-71.908 118.714-162.324 135.52-261.463 2.339-14.042 14.467-23.827 28.294-23.827 1.702 0 3.19 0.211 4.893 0.422 15.533 2.342 26.17 17.235 23.402 32.765z" />
<glyph unicode="&#xe903;" glyph-name="quote-1" d="M409.6 755.2v-409.6h-204.8v-204.8h-204.8v614.4h409.6zM1024 755.2h-409.6v-614.4h204.8v204.8h204.8v409.6z" />
<glyph unicode="&#xe904;" glyph-name="calendar" d="M80-32h864c12.73 0 24.941 5.056 33.939 14.061 9.005 8.998 14.061 21.21 14.061 33.939v720c0 12.73-5.056 24.94-14.061 33.941-8.998 9.002-21.21 14.059-33.939 14.059h-192v96c0 12.73-5.056 24.939-14.061 33.941-8.998 9.002-21.21 14.059-33.939 14.059s-24.941-5.057-33.939-14.059c-9.005-9.002-14.061-21.211-14.061-33.941v-96h-288v96c0 12.73-5.057 24.939-14.059 33.941s-21.211 14.059-33.941 14.059c-12.73 0-24.94-5.057-33.941-14.059s-14.059-21.211-14.059-33.941v-96h-192c-12.73 0-24.939-5.057-33.941-14.059s-14.059-21.211-14.059-33.941v-720c0-12.73 5.057-24.941 14.059-33.939 9.002-9.005 21.211-14.061 33.941-14.061zM128 688h768v-144h-768v144zM128 448h768v-384h-768v384z" />
<glyph unicode="&#xe907;" glyph-name="magnet-1" d="M172.614 631.13h133.297c33.199 0 34.22 0 34.729-33.81 0-57.371 0.003-115.257 4.599-172.116 4.963-42.276 25.555-81.146 57.705-108.936s73.517-42.475 115.938-41.156c44.616 1.861 86.754 21.094 117.459 53.615 30.708 32.521 47.565 75.764 46.996 120.552 0 51.224 0 102.451 0 153.675 0 20.492 6.638 29.199 27.579 29.199h283.961c21.962 0 30.133-8.195 29.624-30.223 0-70.692 0-141.381-6.129-211.561-8.228-107.065-51.498-208.405-123.079-288.259s-167.46-133.749-272.73-153.305c-76.071-17.7-155.172-17.667-231.225 0.093-76.056 17.76-147.038 52.775-207.489 102.358-47.729 37.755-87.517 84.637-117.061 137.921s-48.255 111.917-55.053 172.505c-10.214 79.911-7.659 161.361-11.234 241.784 0 19.98 7.659 28.175 27.067 27.663h145.047zM171.1 716.68c-46.476 0-93.462 0-140.449 0-20.94 0-31.153 6.659-30.642 29.198 0 51.226 0 102.451 0 153.677-0.617 8.477 0.601 16.988 3.572 24.948s7.624 15.181 13.641 21.167c6.016 5.986 13.256 10.595 21.216 13.511s16.454 4.069 24.9 3.381h213.482c8.479 1.052 17.084 0.17 25.176-2.583 8.090-2.753 15.456-7.305 21.546-13.314s10.749-13.322 13.625-21.391c2.876-8.069 3.894-16.686 2.982-25.206 0-51.226 0-102.451 0-150.603 0-24.588-9.192-30.736-31.663-30.224-44.945-2.049-90.91-2.561-137.386-2.561zM852.914 716.678c-47.499 0-95.509 0-143.005 0-19.92 0-27.067 7.684-26.555 27.662 0 51.226 0 105.013 0 157.775-0.431 7.516 0.705 15.040 3.331 22.092s6.686 13.481 11.921 18.876c5.234 5.395 11.529 9.64 18.486 12.464 6.96 2.824 14.426 4.166 21.929 3.94 76.098 0 153.218 0 227.783 0 7.508 0.070 14.953-1.371 21.896-4.236s13.243-7.096 18.528-12.445c5.286-5.348 9.448-11.705 12.243-18.694 2.792-6.989 4.159-14.469 4.024-21.998 0-53.787 0-107.061 0-160.848 0-19.466-10.725-24.588-28.091-24.588h-142.49z" />
<glyph unicode="&#xe908;" glyph-name="seo" d="M344.538 28.855l-34.010-57.112-110.902 63.747 32.531 57.481c-23.29 24.32-46.21 48.64-69.499 73.696-2.218 2.212-9.981 0-14.048 0-15.896-8.475-31.423-17.686-49.167-28.004l-63.953 110.543 56.929 34.269-27.356 102.435h-65.063v129.337h65.063l27.726 102.804-56.929 33.9 63.583 110.545c17.005-9.58 32.902-19.529 49.537-27.636 2.547-1.185 5.322-1.799 8.132-1.799s5.588 0.614 8.134 1.799c22.55 22.109 43.992 44.954 67.281 69.274l-32.531 57.482 110.902 63.747 34.010-57.114 103.879 28.004v64.852h126.426v-64.852l104.62-28.004 33.638 57.114 110.902-63.747-32.531-57.114c23.291-24.688 46.209-48.639 69.5-73.695 2.218-2.211 9.981 0 14.048 0 15.896 8.106 31.423 17.687 49.168 27.636l64.321-110.544-57.667-33.9 27.726-102.435h65.062v-129.706h-65.434l-27.726-102.804 57.304-33.533-63.957-110.543c-15.896 9.213-31.051 17.319-45.468 26.532-1.717 1.582-3.767 2.757-6.001 3.438-2.237 0.682-4.595 0.852-6.904 0.499-2.312-0.356-4.514-1.223-6.438-2.544-1.927-1.32-3.527-3.056-4.686-5.080-19.593-22.477-41.033-43.11-63.213-66.326l32.531-56.746-110.902-64.113-34.013 57.112-103.508-27.635v-65.221h-127.908v54.903c0 8.106 0 12.159-10.72 14.371-30.313 7.37-60.626 16.212-92.419 24.686zM862.081 448.922c-0.372 69.284-21.383 136.895-60.37 194.255-38.987 57.362-94.192 101.886-158.607 127.923s-135.138 32.414-203.197 18.321c-68.058-14.093-130.379-48.020-179.061-97.477-48.681-49.458-81.524-112.213-94.364-180.306s-5.097-138.453 22.247-202.151c27.344-63.698 73.054-117.868 131.332-155.626 58.282-37.761 126.502-57.417 196.004-56.468 92.475 1.641 180.609 39.389 245.455 105.124 64.843 65.738 101.22 154.214 101.301 246.404h-0.741zM802.196 445.974c-0.437-57.145-17.847-112.88-50.033-160.17-32.183-47.293-77.7-84.022-130.808-105.553-53.105-21.534-111.422-26.904-167.588-15.435-56.164 11.469-107.663 39.265-147.995 79.877-40.333 40.615-67.693 92.225-78.628 148.321-10.935 56.099-4.955 114.168 17.186 166.88s59.451 97.708 107.22 129.307c47.77 31.597 103.861 48.383 161.191 48.239 77.099-0.584 150.833-31.573 205.075-86.192 54.242-54.617 84.58-128.423 84.38-205.274zM515.7 340.957l140.846 142.969v-50.85h56.929v156.605h-154.893v-60.799h49.907l-102.031-98.385-55.45 60.429-151.568-147.391 42.881-43.48 107.577 110.543 65.803-69.643z" />
<glyph unicode="&#xe909;" glyph-name="eye" d="M511.852 805.209c217.093-7.964 379.613-106.19 491.16-287.301 14.010-21.421 21.461-46.354 21.461-71.825s-7.451-50.405-21.461-71.825c-128.938-199.694-308.85-303.23-548.733-280.224-191.607 17.994-333.438 120.939-431.79 281.993-13.584 21.194-20.792 45.737-20.792 70.792 0 25.057 7.209 49.6 20.792 70.794 110.046 182.292 272.567 279.337 489.362 287.596zM511.852 249.485c39.624 0.060 78.343 11.659 111.273 33.34s58.594 52.467 73.757 88.481c15.165 36.011 19.146 75.633 11.445 113.869s-26.743 73.371-54.72 100.975c-27.977 27.603-63.636 46.438-102.481 54.128s-79.136 3.891-115.788-10.918c-36.654-14.809-68.027-39.964-90.164-72.293-22.137-32.327-34.047-70.382-34.225-109.361-0.488-26.162 4.391-52.153 14.346-76.419s24.778-46.311 43.587-64.812c18.811-18.503 41.22-33.087 65.886-42.879 24.669-9.79 51.088-14.591 77.686-14.11h-0.6zM512.45 566.579c24.14-0.062 47.718-7.182 67.736-20.456 20.016-13.274 35.571-32.104 44.685-54.096 9.114-21.99 11.371-46.151 6.494-69.408-4.879-23.259-16.677-44.565-33.897-61.211-17.217-16.646-39.076-27.881-62.8-32.275-23.726-4.396-48.242-1.753-70.437 7.592s-41.062 24.969-54.208 44.887c-13.145 19.92-19.973 43.234-19.616 66.979 1.074 31.313 14.338 61.021 37.055 82.982 22.714 21.961 53.141 34.495 84.987 35.007z" />
<glyph unicode="&#xe90a;" glyph-name="heart-hand" d="M860.167 386.558c-22.918 24.381-43.398 44.861-64.61 65.585-12.254 12.917-27.938 22.072-45.212 26.39-17.271 4.318-35.421 3.623-52.312-2.009-17.396-4.557-33.051-14.168-44.985-27.621s-19.612-30.142-22.062-47.96c0-5.12-2.682-10.24-4.389-16.091-18.588 0.19-36.764-5.476-51.948-16.199-15.187-10.723-26.609-25.954-32.653-43.535-2.643-10.949-8.214-20.977-16.116-29.006-7.902-8.031-17.837-13.763-28.745-16.586-14.78-5.669-27.906-14.948-38.181-26.99-10.277-12.044-17.371-26.466-20.646-41.955-3.272-15.489-2.614-31.549 1.911-46.719s12.778-28.967 24.001-40.129c16.823-17.554 34.621-34.136 53.882-53.153-28.282-23.162-47.055-57.293-88.015-59.243-12.695-0.583-25.324 2.15-36.64 7.936-11.318 5.783-20.933 14.416-27.897 25.049-6.966 10.63-11.037 22.894-11.82 35.577-0.783 12.685 1.753 25.356 7.358 36.762 1.463 3.17 3.416 6.095 7.317 12.678-14.743-8.589-32.024-11.756-48.855-8.953-16.83 2.806-32.149 11.405-43.308 24.313-11.13 11.766-17.9 26.982-19.188 43.127-1.285 16.145 2.992 32.241 12.117 45.619-19.1-2.443-38.436-2.443-57.538 0-11.17 3.335-21.309 9.455-29.464 17.786s-14.059 18.598-17.155 29.835c-3.096 11.24-3.283 23.081-0.545 34.411 2.738 11.332 8.313 21.78 16.199 30.364 71.191 71.68 143.603 142.385 219.428 216.99 16.823-18.042 33.89-38.522 53.15-56.808 22.243-21.002 51.224-33.414 81.771-35.021 30.547-1.609 60.672 7.695 84.997 26.244 15.172 11.559 27.677 26.246 36.669 43.069 8.989 16.82 14.256 35.379 15.433 54.416 1.18 19.037-1.753 38.105-8.597 55.906-6.846 17.804-17.445 33.924-31.074 47.266-26.331 26.575-53.394 52.175-80.457 78.506 62.659 67.291 134.585 107.276 226.501 97.524 48.54-4.768 94.613-23.693 132.491-54.422s65.894-71.909 80.567-118.424c14.675-46.515 15.36-96.318 1.972-143.22s-40.26-88.837-77.28-120.598c-18.286-14.872-36.328-32.183-56.076-50.712zM149.946 396.8c-34.274 32.407-66.826 66.589-97.524 102.4-25.568 32.978-42.382 71.882-48.88 113.101s-2.468 83.41 11.716 122.653c14.184 39.243 38.060 74.261 69.409 101.8s69.153 46.704 109.896 55.712c39.806 9.858 81.492 9.175 120.953-1.984 39.463-11.159 75.335-32.407 104.082-61.65 58.27-56.076 114.59-114.347 170.667-170.667 10.693-9.551 18.254-22.11 21.692-36.031 3.435-13.922 2.589-28.555-2.431-41.989-4.359-11.659-11.62-22.014-21.099-30.084s-20.863-13.585-33.068-16.028c-12.208-2.441-24.834-1.726-36.688 2.077s-22.54 10.567-31.049 19.653l-91.429 90.453c-41.204-41.448-82.164-82.408-121.905-123.611l-124.342-125.806zM495.899 187.121c-0.375 8.209 1.755 16.338 6.11 23.306s10.728 12.446 18.271 15.704c6.69 3.426 14.316 4.567 21.714 3.245s14.158-5.030 19.246-10.559c24.381-24.381 48.762-48.762 73.143-73.143 5.188-4.898 10.074-10.111 14.629-15.604 5.893-7.502 8.772-16.935 8.073-26.448s-4.927-18.422-11.854-24.983c-6.927-6.561-16.052-10.299-25.59-10.479-9.538-0.183-18.8 3.201-25.973 9.492-29.418 28.609-58.351 57.702-86.796 87.284-4.891 6.719-8.599 14.221-10.971 22.187zM590.263 286.842c0.592 7.487 3.162 14.682 7.446 20.851s10.125 11.088 16.935 14.258c5.91 3.679 12.876 5.293 19.805 4.586 6.927-0.705 13.424-3.689 18.473-8.487 31.451-29.989 62.413-60.465 92.158-92.16 3.131-3.599 5.505-7.792 6.983-12.329s2.028-9.323 1.619-14.078c-0.41-4.754-1.77-9.374-4.001-13.592s-5.288-7.943-8.989-10.957c-6.788-6.412-15.772-9.984-25.11-9.984-9.34 0-18.325 3.572-25.115 9.984-30.232 28.77-59.487 58.27-88.257 88.259-5.13 7.251-9.155 15.221-11.947 23.65zM808.224 258.56c-9.431 4.113-18.283 9.44-26.331 15.848-27.55 26.088-54.126 53.394-80.945 80.457-3.774 3.569-6.802 7.853-8.909 12.603-2.107 4.747-3.25 9.867-3.362 15.060-0.115 5.193 0.805 10.357 2.701 15.194 1.897 4.835 4.735 9.245 8.35 12.976 3.574 3.835 7.929 6.861 12.768 8.877 4.837 2.016 10.052 2.974 15.292 2.814s10.384-1.441 15.089-3.752c4.706-2.309 8.862-5.598 12.195-9.645 28.038-27.307 55.589-55.101 83.139-83.139 5.739-5.317 9.565-12.381 10.889-20.092 1.321-7.714 0.066-15.648-3.574-22.574-3.421-7.085-8.694-13.115-15.26-17.449s-14.182-6.814-22.043-7.175z" />
<glyph unicode="&#xe90b;" glyph-name="bulb1" d="M510.362 82.767c-36.206 0-72.412 0-108.618 0-26.332 0-41.142 11.809-39.498 38.802 3.292 62.418-23.040 111.34-60.89 158.577-74.057 91.095-87.223 195.689-36.206 303.657 49.373 106.278 138.241 160.263 255.087 156.889 115.2-3.374 199.13-62.42 245.21-172.072 44.436-107.968 26.332-210.872-49.37-300.283-36.206-40.489-55.956-86.036-54.31-141.709 1.646-35.425-11.52-45.548-44.434-45.548-36.206 1.687-70.766 1.687-106.97 1.687zM480.737 636.099c-1.646-1.687-3.292-3.374-4.936-3.374-4.938-1.687-9.876-1.687-14.812-3.374-59.246-20.244-98.744-60.731-115.2-123.149-4.938-18.557 3.292-35.428 18.102-40.489 16.458-5.061 29.624 3.374 39.498 21.932 8.228 18.557 18.102 38.799 32.914 53.983 13.166 13.496 32.914 20.244 49.372 28.68 14.81 6.748 24.686 18.557 19.748 35.425-3.292 11.809-16.458 20.244-24.686 30.367zM512.005-3.269c26.33 0 52.662 0 78.994 0 19.748 0 32.914-13.496 32.914-30.364 0-16.87-13.166-30.367-32.914-30.367-52.664 0-105.326 0-159.634 0-19.75 0-32.914 13.496-32.914 30.367 0 16.868 13.164 30.364 32.914 30.364 27.976 0 54.308 0 80.64 0zM911.908 492.703c-9.874 0-21.394-1.687-31.268 0-18.104 1.687-27.978 13.496-27.978 32.054 0 16.87 11.52 28.68 27.978 30.367 21.394 1.687 42.788 1.687 64.182 0 16.458-1.687 26.332-13.496 26.332-30.367 0-18.557-11.52-28.68-27.978-30.367-9.874-3.374-19.748-1.687-31.268-1.687zM110.446 555.123c9.874 0 21.394 1.687 31.268 0 18.103-1.687 27.977-13.496 27.977-32.054 0-16.87-11.52-28.68-27.977-30.367-21.394-1.687-42.788-1.687-64.183 0-16.457 1.687-26.331 13.496-26.331 30.367 0 18.557 11.52 28.68 27.977 32.054 9.874 0 21.394 0 31.269 0zM227.294 843.597c9.874-5.061 18.103-6.748 23.040-10.122 16.457-15.183 31.269-30.366 46.080-47.236 11.521-13.496 9.874-28.679-1.646-40.488s-26.331-13.496-39.497-1.687c-16.457 15.183-32.914 30.366-46.080 48.923-6.583 6.748-6.583 21.931-3.291 30.366s14.811 15.183 21.394 20.244zM823.043 808.172c0-1.687 0-8.435-3.292-11.809-18.102-18.557-34.56-38.801-54.308-55.671-11.52-10.122-27.978-6.748-34.56 6.748-4.938 10.122-9.874 26.992-4.938 33.74 14.812 20.244 34.56 40.488 54.31 55.671 16.456 13.496 41.142-3.374 42.788-28.679zM482.381 899.269c0 10.122 0 21.931 0 32.053 1.646 18.557 11.52 28.679 29.624 28.679 16.456 0 27.976-10.122 29.622-26.992 1.646-21.931 1.646-43.862 0-65.792-1.646-16.87-11.52-26.992-29.622-26.992-18.104 0-27.978 10.122-29.624 28.679-1.646 8.435 0 20.244 0 30.366z" />
<glyph unicode="&#xe90c;" glyph-name="bulb" d="M510.362 82.767c-36.206 0-72.412 0-108.618 0-26.332 0-41.142 11.809-39.498 38.802 3.292 62.418-23.040 111.34-60.89 158.577-74.057 91.095-87.223 195.689-36.206 303.657 49.373 106.278 138.241 160.263 255.087 156.889 115.2-3.374 199.13-62.42 245.21-172.072 44.436-107.968 26.332-210.872-49.37-300.283-36.206-40.489-55.956-86.036-54.31-141.709 1.646-35.425-11.52-45.548-44.434-45.548-36.206 1.687-70.766 1.687-106.97 1.687zM480.737 636.099c-1.646-1.687-3.292-3.374-4.936-3.374-4.938-1.687-9.876-1.687-14.812-3.374-59.246-20.244-98.744-60.731-115.2-123.149-4.938-18.557 3.292-35.428 18.102-40.489 16.458-5.061 29.624 3.374 39.498 21.932 8.228 18.557 18.102 38.799 32.914 53.983 13.166 13.496 32.914 20.244 49.372 28.68 14.81 6.748 24.686 18.557 19.748 35.425-3.292 11.809-16.458 20.244-24.686 30.367zM512.005-3.269c26.33 0 52.662 0 78.994 0 19.748 0 32.914-13.496 32.914-30.364 0-16.87-13.166-30.367-32.914-30.367-52.664 0-105.326 0-159.634 0-19.75 0-32.914 13.496-32.914 30.367 0 16.868 13.164 30.364 32.914 30.364 27.976 0 54.308 0 80.64 0zM911.908 492.703c-9.874 0-21.394-1.687-31.268 0-18.104 1.687-27.978 13.496-27.978 32.054 0 16.87 11.52 28.68 27.978 30.367 21.394 1.687 42.788 1.687 64.182 0 16.458-1.687 26.332-13.496 26.332-30.367 0-18.557-11.52-28.68-27.978-30.367-9.874-3.374-19.748-1.687-31.268-1.687zM110.446 555.123c9.874 0 21.394 1.687 31.268 0 18.103-1.687 27.977-13.496 27.977-32.054 0-16.87-11.52-28.68-27.977-30.367-21.394-1.687-42.788-1.687-64.183 0-16.457 1.687-26.331 13.496-26.331 30.367 0 18.557 11.52 28.68 27.977 32.054 9.874 0 21.394 0 31.269 0zM227.294 843.597c9.874-5.061 18.103-6.748 23.040-10.122 16.457-15.183 31.269-30.366 46.080-47.236 11.521-13.496 9.874-28.679-1.646-40.488s-26.331-13.496-39.497-1.687c-16.457 15.183-32.914 30.366-46.080 48.923-6.583 6.748-6.583 21.931-3.291 30.366s14.811 15.183 21.394 20.244zM823.043 808.172c0-1.687 0-8.435-3.292-11.809-18.102-18.557-34.56-38.801-54.308-55.671-11.52-10.122-27.978-6.748-34.56 6.748-4.938 10.122-9.874 26.992-4.938 33.74 14.812 20.244 34.56 40.488 54.31 55.671 16.456 13.496 41.142-3.374 42.788-28.679zM482.381 899.269c0 10.122 0 21.931 0 32.053 1.646 18.557 11.52 28.679 29.624 28.679 16.456 0 27.976-10.122 29.622-26.992 1.646-21.931 1.646-43.862 0-65.792-1.646-16.87-11.52-26.992-29.622-26.992-18.104 0-27.978 10.122-29.624 28.679-1.646 8.435 0 20.244 0 30.366z" />
<glyph unicode="&#xe90d;" glyph-name="users-4" d="M506.928 5.953c-62.73 0-123.761 0-186.491 0-52.556 0-79.682 26.941-79.682 77.462 0 67.359-1.695 134.721 6.782 200.397 13.563 99.355 98.33 180.186 200.054 190.29 45.773 5.052 94.938 5.052 140.715 0 96.635-13.472 184.794-111.142 189.88-208.814 3.389-62.307 3.389-124.617 1.696-186.924-1.696-48.835-22.040-69.045-72.902-70.728s-101.721-1.683-154.279-3.369c-15.258 0-32.212 0-47.469 0 1.696 0 1.696 1.686 1.696 1.686zM512.010 546.512c-96.635 0-172.927 77.466-172.927 173.453 0 94.304 77.985 171.768 174.623 171.768 96.635 0 172.926-79.148 172.926-173.452-1.696-95.988-77.988-171.77-174.623-171.77zM271.266 448.84c-72.901-70.728-89.854-156.611-89.854-249.231 0-42.1 0-85.883 0-129.666-45.775 0-91.55-1.686-137.325 0-23.735 1.683-42.384 26.941-42.384 52.204 0 77.462-1.695 153.242 0 230.707 1.695 55.572 44.080 104.407 98.331 117.879 40.689 10.103 83.073 10.103 123.762-1.683 15.258-1.686 28.821-11.79 47.47-20.21zM842.605 69.943c0 52.204 0 101.038 0 148.19-1.696 85.886-20.347 165.031-89.856 232.393 22.040 10.103 40.69 21.89 61.034 23.576 32.212 3.366 66.12 5.052 96.635 1.683 64.423-8.421 113.589-63.99 113.589-127.983 0-70.728 0-143.142 0-213.869 0-37.048-23.733-62.307-62.727-62.307-38.994-3.369-77.988-1.683-118.675-1.683zM159.37 546.516c-61.033 0-108.503 48.835-108.503 107.775 0 60.624 49.166 111.144 110.199 109.46 61.033 0 108.503-48.836 108.503-109.46 1.695-58.94-47.47-107.775-110.199-107.775zM864.649 546.512c-61.034 0-108.503 47.153-110.199 107.777 0 60.624 49.166 111.144 110.199 111.144s110.199-50.52 110.199-111.144c-1.696-60.624-49.166-107.777-110.199-107.777z" />
<glyph unicode="&#xe90e;" glyph-name="user-3" d="M552.158 372.706c110.886 0 200.783-89.897 200.783-200.785v-75.294c0-41.583-33.711-75.294-75.294-75.294h-602.353c-41.584 0-75.294 33.711-75.294 75.294v75.294c0 110.889 89.894 200.785 200.784 200.785h351.374zM853.333 372.695c83.17 0 150.588-67.424 150.588-150.588v-75.294c0-41.587-33.711-75.294-75.294-75.294h-75.294v100.401c0 82.097-39.413 154.98-100.352 200.774h100.352zM376.471 874.667c124.751 0 225.882-101.131 225.882-225.882 0-124.753-101.131-225.884-225.882-225.884-124.753 0-225.883 101.131-225.883 225.884 0 124.751 101.13 225.882 225.883 225.882zM803.138 724.079c83.168 0 150.588-67.421 150.588-150.587 0-83.17-67.42-150.59-150.588-150.59-83.17 0-150.59 67.42-150.59 150.59 0 83.166 67.42 150.587 150.59 150.587z" />
<glyph unicode="&#xe90f;" glyph-name="hand-star" d="M736.187 778.121l-134.133 19.489-59.986 121.545c-12.232 24.787-47.674 24.773-59.9 0l-59.986-121.545-134.133-19.489c-27.352-3.974-38.291-37.685-18.508-56.968l97.060-94.61-22.913-133.592c-4.675-27.236 24.006-48.070 48.457-35.21l119.973 63.072 119.971-63.072c24.255-12.753 53.168 7.758 48.46 35.21l-22.913 133.592 97.062 94.61c19.794 19.294 8.826 52.993-18.51 56.968zM240.876 452.577h-207.477c-18.444 0-33.399-14.953-33.399-33.398v-427.52c0-18.443 14.954-33.398 33.399-33.398h207.477c18.445 0 33.4 14.953 33.4 33.398v427.52c0 18.445-14.955 33.398-33.4 33.398zM1002.247 307.387c-36.156 45.568-102.502 52.193-146.917 14.919l-158.23-132.768c-49.599 0-88.986 0-134.358 0l71.878 60.311c54.682 45.884 24.752 137.911-49.76 137.911h-243.783v-397.439c17.791-14.387 40.081-22.31 62.994-22.31h313.003c23.514 0 46.385 8.323 64.405 23.438l205.147 172.128c42.937 36.031 49.949 100.543 15.62 143.81z" />
<glyph unicode="&#xe910;" glyph-name="crown" d="M511.997 656.262c-56.573 0-102.858 46.286-102.858 102.857 0 57.847 46.285 102.857 102.858 102.857 56.57 0 102.854-45.010 102.854-102.857 0-56.571-46.285-102.857-102.854-102.857zM101.842 698.722c45.011 0 81.011-37.275 81.011-82.286 0-46.285-36-82.285-81.011-82.285-46.285 0-83.561 36-83.561 82.285 0 45.011 37.276 82.286 83.561 82.286zM924.701 698.722c45.008 0 81.008-37.275 81.008-82.286 0-46.285-36-82.285-81.008-82.285-46.288 0-83.562 36-83.562 82.285 0 45.011 37.274 82.286 83.562 82.286zM191.863 130.416l-68.133 372.877c20.572 3.869 39.868 15.43 55.296 28.307 42.419-38.592 96.439-75.869 147.867-75.869 61.715 0 111.869 95.164 146.592 174.858 11.562-3.868 25.715-7.735 38.592-7.735 12.88 0 26.992 3.867 38.592 7.735 34.726-79.735 84.88-174.858 146.592-174.858 51.43 0 105.45 37.277 147.869 75.869 15.427-12.877 34.723-24.438 55.296-28.307l-68.134-372.877h-640.428zM177.71 98.282h668.572v-62.989h-668.572v62.989z" />
<glyph unicode="&#xe911;" d="M306.708 234.739c-17.627 17.379-8.438 12.48-50.954 23.699-19.29 5.101-36.248 14.902-51.583 26.64l-92.030-222.48c-8.905-21.539 7.728-44.938 31.299-44.058l106.878 4.019 73.51-76.56c16.227-16.88 44.707-11.619 53.613 9.92l105.578 255.238c-21.987-12.080-46.39-19.158-71.622-19.158-39.555 0-76.717 15.181-104.688 42.739zM886.189 62.598l-92.032 222.48c-15.334-11.76-32.291-21.539-51.581-26.64-42.739-11.28-33.37-6.358-50.954-23.699-27.974-27.558-65.155-42.739-104.707-42.739-25.235 0-49.635 7.101-71.626 19.158l105.581-255.238c8.906-21.539 37.405-26.8 53.61-9.92l73.533 76.56 106.877-4.019c23.571-0.88 40.202 22.538 31.299 44.058zM643.184 280c30.992 31.101 34.544 28.419 78.682 40.278 28.173 7.581 50.202 29.68 57.747 57.962 15.174 56.8 11.238 49.939 52.64 91.501 20.627 20.698 28.682 50.88 21.136 79.158-15.152 56.762-15.174 48.842 0 105.66 7.546 28.28-0.509 58.46-21.136 79.16-41.402 41.56-37.466 34.72-52.64 91.5-7.546 28.28-29.574 50.38-57.747 57.96-56.554 15.22-49.738 11.24-91.178 52.82-20.63 20.7-50.71 28.8-78.886 21.22-56.531-15.2-48.64-15.22-105.274 0-28.176 7.58-58.256-0.5-78.886-21.22-41.402-41.56-34.586-37.6-91.157-52.82-28.175-7.58-50.204-29.68-57.749-57.96-15.152-56.78-11.238-49.94-52.638-91.5-20.629-20.7-28.702-50.88-21.136-79.16 15.152-56.719 15.172-48.799 0-105.641-7.546-28.278 0.507-58.458 21.136-79.178 41.4-41.562 37.465-34.701 52.638-91.501 7.546-28.282 29.574-50.381 57.749-57.962 45.397-12.198 48.783-10.278 78.661-40.278 26.838-26.941 68.643-31.76 100.896-11.642 12.896 8.074 27.856 12.362 43.133 12.362s30.237-4.288 43.136-12.362c32.23-20.118 74.035-15.299 100.874 11.642zM497.587 584.531c-105.683 0-0.256-8.65 0 0-24.531-3.84 0 106.061 0 0 105.68 0 7.69 0.205 0 0 17.702 1.21 0-106.058 0 0z" />
<glyph unicode="&#xe912;" d="M658.284 612.57c0-90.89-73.681-164.572-164.572-164.572s-164.572 73.681-164.572 164.572c0 90.89 73.681 164.572 164.572 164.572s164.572-73.681 164.572-164.572z" />
<glyph unicode="&#xe913;" glyph-name="star" d="M994.736 577.503c-7.365 21.927-26.346 37.915-49.2 41.41l-265.962 40.641-119.464 254.49c-10.189 21.692-31.96 35.5-55.877 35.5-23.932 0-45.685-13.808-55.874-35.5l-119.48-254.506-265.963-40.641c-22.852-3.495-41.833-19.467-49.183-41.409s-1.802-46.113 14.357-62.694l194.226-199.164-46.002-281.761c-3.793-23.322 6.097-46.768 25.391-60.405 19.278-13.637 44.732-15.016 65.468-3.573l237.078 131.109 237.074-131.109c9.359-5.171 19.657-7.713 29.908-7.713 12.475 0 24.949 3.792 35.562 11.286 19.295 13.619 29.169 37.069 25.373 60.405l-46 281.761 194.242 199.164c16.128 16.581 21.676 40.752 14.325 62.709z" />
<glyph unicode="&#xe914;" glyph-name="flag-2" d="M219.421 907.759c23.083 0 41.796-18.713 41.796-41.796h543.347c15.060 0 28.95-8.1 36.37-21.203s7.219-29.184-0.53-42.097l-112.486-187.476 112.486-187.477c7.749-12.91 7.951-28.994 0.53-42.094-7.42-13.104-21.31-21.204-36.37-21.204h-543.347v-334.369c0-23.084-18.713-41.794-41.796-41.794s-41.796 18.71-41.796 41.794v835.92c0 23.083 18.713 41.796 41.796 41.796zM261.217 782.371v-334.367h469.528l-87.409 145.679c-7.94 13.237-7.94 29.773 0 43.009l87.409 145.68h-469.528z" />
<glyph unicode="&#xe915;" glyph-name="quote" d="M443.261 868.136c-179.302-12.599-437.043-41.226-437.185-392.383v-441.82h400.109v472.714h-132.855c-8.417 126.224 95.521 158.818 208.551 183.837l-38.62 177.653zM979.314 868.136c-179.305-12.599-437.043-41.227-437.186-392.383v-441.82h400.11v472.714h-132.855c-8.417 126.224 95.524 158.818 208.551 183.837l-38.62 177.653z" />
<glyph unicode="&#xe916;" glyph-name="thumb" d="M864.849 266.027l30.101 174.071c7.518 43.477-25.916 83.243-69.99 83.243h-221.060c-21.909 0-38.592 19.666-35.046 41.311l28.275 172.568c4.591 28.035 3.281 56.722-3.853 84.22-5.909 22.779-23.484 41.070-46.596 48.495l-6.187 1.987c-13.969 4.487-29.214 3.443-42.385-2.903-14.494-6.985-25.101-19.727-29.030-34.88l-20.297-78.244c-6.46-24.896-15.863-48.926-27.994-71.632-17.722-33.175-45.121-59.727-73.603-84.27l-61.386-52.898c-17.308-14.917-26.398-37.253-24.428-60.028l34.653-400.755c3.178-36.757 33.911-64.977 70.766-64.977h198.341c148.535 0 275.298 103.492 299.721 244.693zM126.621 555.303c17.12 0.739 31.784-12.141 33.26-29.215l41.455-479.424c2.663-30.797-21.595-57.34-52.57-57.34-29.176 0-52.766 23.671-52.766 52.791v481.216c0 17.137 13.5 31.232 30.621 31.971z" />
<glyph unicode="&#xe917;" glyph-name="flag" d="M205.379 960c19.171 0 34.712-15.993 34.712-35.721v-88.112l79.637 16.39c76.39 15.722 155.575 8.241 227.906-21.533l9.428-3.88c72.251-29.742 151.778-35.296 227.276-15.873 35.046 9.017 68.996-18.262 68.996-55.438v-350.876c0-30.686-20.297-57.434-49.225-64.879l-9.924-2.551c-81.903-21.073-168.166-15.044-246.551 17.216-72.33 29.777-151.515 37.257-227.906 21.534l-79.637-16.388v-388.169c0-19.729-15.541-35.721-34.712-35.721s-34.712 15.991-34.712 35.721v952.559c0 19.728 15.541 35.721 34.712 35.721z" />
<glyph unicode="&#xe918;" glyph-name="user-2" d="M493.035 512c102.11 0 184.887 85.962 184.887 192s-82.778 192-184.887 192c-102.111 0-184.889-85.962-184.889-192s82.778-192 184.889-192zM862.805 192c0 106.044-82.773 192-184.887 192h-369.779c-102.111 0-184.889-85.956-184.889-192v-192h739.555v192z" />
<glyph unicode="&#xe919;" glyph-name="diagram" d="M666.71 205.213c-92.474 0-182.845 0-277.421 0 25.219-61.862 23.117-117.536-39.933-156.717-39.933-24.742-81.967-20.618-117.696 6.189-54.644 39.178-54.644 92.79-31.525 150.528-56.746 0-111.39 0-168.136 0 0 76.298 0 152.592 0 230.95 23.119-2.061 44.136-4.125 65.153-8.25 14.712-2.061 29.424-10.31 44.135-12.371 23.119-6.186 44.136 4.125 56.746 20.621 10.508 16.496 10.508 39.178 0 55.677-12.61 18.557-33.627 26.806-56.746 20.618-12.61-2.061-25.22-8.246-37.83-10.307-8.407-2.064-18.915-6.189-29.424-6.189-12.61-2.061-27.322 0-42.034 0 0 76.298 0 150.531 0 226.827 54.644 0 109.288 0 168.136 0-25.22 61.862-23.119 117.537 37.83 156.716 37.83 24.745 81.966 22.683 117.695-4.124 54.643-39.179 56.746-92.792 33.629-150.53 92.474 0 182.845 0 277.421 0-4.202 8.248-6.304 18.558-10.506 26.807-14.714 47.427 0 94.854 39.93 121.661 37.83 26.807 90.374 26.807 128.205 0 39.933-26.807 54.643-74.234 42.035-123.723-2.102-8.248-6.307-18.558-8.41-28.869 56.746 0 111.392 0 166.035 0 0-4.124 2.102-8.248 2.102-10.31 0-72.173 0-142.282 0-218.576-23.12 2.061-44.138 4.122-65.152 8.246-14.714 2.064-27.325 8.25-42.035 12.371-23.12 6.189-46.237-2.061-58.848-18.557-12.608-16.496-12.608-41.242 0-57.738 12.611-18.56 35.728-26.806 58.848-18.56 33.626 10.31 69.357 22.685 107.187 16.499 0-74.234 0-148.47 0-226.826-54.646 0-109.29 0-166.035 0 4.205-12.374 6.307-24.746 10.509-35.056 12.611-45.366-4.202-92.794-42.035-119.6-37.83-24.742-88.269-24.742-126.099 0-37.83 26.806-54.646 72.173-42.035 117.539-2.102 12.371 2.102 22.682 6.304 35.053zM324.134 665.051c0 6.186-2.099 10.31 0 14.434 6.307 30.931 12.611 63.924 18.915 94.854 4.205 20.62-2.099 41.241-18.915 53.613-16.812 12.372-37.829 12.372-56.745 2.062s-27.322-30.931-23.119-51.551c2.102-14.434 8.407-26.807 10.508-39.179 4.204-22.683 8.407-47.428 12.61-72.172-63.051 0-119.796 0-176.542 0 0-37.116 0-70.108 0-107.225 63.051 24.742 119.797 22.682 157.627-37.12 23.119-37.117 23.119-76.294 0-113.411-39.932-57.738-96.678-59.798-157.627-35.056 0-37.117 0-72.17 0-109.286 58.848 0 115.593 0 172.339 0 0-14.435 0-26.81 0-37.12 0-10.307-4.204-18.557-6.305-26.806-4.203-14.432-10.508-30.928-12.61-45.363-4.203-20.621 4.204-41.242 23.119-51.552 16.814-10.31 39.932-10.31 56.745 2.061 16.816 12.374 25.222 32.995 21.018 53.616-4.202 16.496-10.509 32.992-14.71 49.488-4.205 18.56-4.205 39.178-6.307 59.798 60.95 0 117.696 0 176.544 0 0 57.738 0 113.414 0 171.152 6.304 0 10.509 2.061 14.71 0 31.526-6.186 63.053-12.374 94.576-18.56 23.12-4.125 44.138 2.064 56.746 18.56 12.611 18.557 12.611 41.242 0 57.738-12.608 16.496-33.626 24.742-56.746 18.557-14.71-4.125-27.322-10.31-42.032-12.371-21.018-4.125-42.035-6.186-67.254-8.25 0 59.802 0 115.475 0 173.213-63.053-4.124-117.696-4.124-176.544-4.124zM557.424 372.24c0-37.117 0-72.173 0-107.226 56.746 0 113.491 0 172.339 0 0-6.189 2.102-12.374 2.102-16.499-6.307-30.928-12.611-59.798-18.915-90.73-4.205-22.682 2.099-43.302 18.915-55.674 16.813-12.374 37.83-12.374 56.746-2.064s27.322 30.931 23.117 53.613c-2.102 14.435-8.406 26.81-12.608 39.181-4.205 22.682-6.307 45.363-10.509 70.109 63.050 0 119.795 0 176.541 0 0 37.117 0 70.109 0 107.229-60.947-24.746-117.693-22.685-157.626 35.053-25.222 37.117-25.222 76.298 0 113.414 39.933 59.798 96.678 61.859 157.626 37.117 0 37.117 0 72.17 0 109.288-58.848 0-115.594 0-176.541 0 4.202 24.745 6.304 47.427 10.509 70.11 2.099 14.434 8.406 26.807 12.608 41.241 4.205 22.683-4.202 41.241-23.117 51.551-16.816 10.31-39.933 10.31-56.746-2.062-16.816-12.372-25.222-32.993-18.915-53.613 4.202-16.496 10.506-32.993 14.71-49.489 4.205-18.558 4.205-39.179 6.304-59.799-60.947 0-117.693 0-174.438 0 0-37.117 0-70.109 0-107.226 60.947 22.682 115.594 22.682 155.523-35.056 25.222-37.117 27.325-78.358 0-115.475-39.93-55.674-94.576-57.738-157.626-32.992z" />
<glyph unicode="&#xe91a;" glyph-name="magnet" d="M368.010-64c-134.648 7.456-262.108 76.883-329.673 226.451-68.522 151.898-46.001 297.274 69.002 419.818 107.335 114.156 223.295 219.926 336.383 328.958 22.998 22.365 53.187 21.9 76.666-0.466 44.566-42.401 88.65-85.268 132.253-128.601 24.438-24.229 23.002-51.254-4.31-77.347-105.421-102.975-210.838-205.481-316.736-307.99-30.188-29.357-43.126-63.37-31.626-103.907 20.605-73.152 113.085-97.382 170.586-44.73 38.336 34.944 74.752 72.221 112.128 108.563 69.958 68.029 139.92 136.058 210.358 204.086 30.189 29.354 56.544 29.821 86.73 0.931 40.733-39.606 81.462-78.746 122.192-118.816 29.709-29.354 30.189-55.914 0.957-84.336-105.898-103.44-212.275-206.88-318.653-309.389-78.582-75.018-177.293-113.69-316.256-113.226zM724.998 353.955c-5.75-5.126-11.501-10.253-17.251-15.843-54.147-52.653-107.814-105.77-162.922-157.955-82.416-78.278-210.358-78.278-290.859 0.467-80.501 78.278-80.501 202.685 0.479 282.829 53.188 52.653 106.857 104.371 161.004 156.093 6.227 6.054 14.854 8.851 18.688 11.181-25.398 25.628-45.523 46.129-66.128 67.097-59.417-58.709-120.752-116.021-180.17-175.663-111.648-111.827-111.648-287.955-0.958-399.779 109.731-110.896 290.859-119.283 408.737-15.843 66.128 58.243 126.982 122.544 190.234 184.048 0.957 0.931 0.48 2.797 0.48 2.33-20.605 20.502-40.733 40.070-61.334 61.040zM483.491 803.593c-13.418-11.183-26.355-21.9-34.979-28.423 22.042-21.9 41.69-41.935 60.378-60.573 10.541 9.319 22.522 20.502 34.979 31.219-20.605 20.036-41.21 39.605-60.378 57.777zM862.522 368.4c11.021 10.717 22.998 22.365 32.102 30.752-19.645 20.035-39.29 40.538-57.978 60.106-11.501-11.181-23.002-22.832-34.982-34.48 19.648-18.17 40.253-37.274 60.858-56.378z" />
<glyph unicode="&#xe91b;" glyph-name="cart" horiz-adv-x="928" d="M0 612.653c70.095 0 137.143 0 208.762 0-33.524 46.613-65.524 88.716-99.048 135.33 45.714 0 88.381 0 134.095 0 0 72.176 0 141.345 0 212.018 102.094 0 202.667 0 304.763 0 0-69.169 0-138.338 0-210.514 45.712 0 88.381 0 135.619 0-33.526-46.614-65.526-88.717-97.526-135.329 54.858 0 108.192 0 161.526 0 9.142 34.583 18.285 69.168 27.427 103.752 51.808 0 102.096 0 153.904 0 0-22.555 0-45.11 0-69.169-32 0-64 0-97.523 0-39.619-151.87-77.715-302.238-117.334-452.606-211.808 0-422.094 0-633.904 0-27.428 139.843-54.857 276.675-80.762 416.518zM88.381 541.981c0-6.016 0-10.528 1.524-13.536 15.238-81.197 32-162.394 45.715-243.594 3.047-15.037 9.143-19.549 22.857-19.549 160 0 318.477 0 478.477 0 16.762 0 22.854 4.512 25.904 19.549 19.808 78.192 41.142 157.885 60.95 236.077 1.526 6.016 1.526 12.029 3.050 21.053-54.858 0-108.192-1.504-161.523 0-24.381 1.501-39.619-7.52-51.811-27.069-36.57-52.627-76.189-105.254-115.808-159.389-4.573 6.016-9.142 12.029-13.715 16.541-30.477 40.598-62.477 79.696-88.381 121.798-22.857 37.59-50.286 51.123-92.953 46.614-38.095-1.504-76.19 1.504-114.286 1.504zM248.381 678.813c50.286-69.169 99.046-135.332 147.811-201.492 50.285 67.664 97.523 133.827 147.808 202.996-24.381 0-45.715 0-68.573 0 0 72.176 0 141.345 0 209.010-54.854 0-106.666 0-161.523 0 0-70.672 0-139.841 0-210.514-12.19 0-21.333 0-30.476 0s-19.809 0-35.048 0zM505.907 92.381c-73.142 0-144.762 0-214.858 0 0-22.554 3.047-45.11 0-67.664-10.667-55.635-65.524-93.229-121.905-88.717-56.381 6.016-102.095 52.627-103.619 109.77-1.524 55.635 39.619 105.254 96 114.278 6.095 1.504 13.714 3.005 19.809 3.005 144.761 0 289.523 1.504 432.761 0 62.477 0 112.762-46.611 115.811-103.75 3.046-48.118-16.762-85.712-60.954-109.77-41.142-22.554-83.808-19.549-121.904 9.021-39.619 28.573-53.334 69.171-44.192 117.286 0 4.512 1.526 10.528 3.050 16.541zM179.811 92.381c-24.381 0-44.191-18.042-44.191-42.102 0-24.058 16.762-42.102 41.143-43.606s44.19 16.541 45.714 40.598c0 25.565-18.286 45.11-42.667 45.11zM614.096 8.176c24.381 0 44.192 19.549 44.192 43.606 0 22.557-19.811 42.102-42.669 42.102-24.381 0-44.189-18.045-44.189-42.102-1.523-25.562 18.285-43.606 42.666-43.606z" />
<glyph unicode="&#xe91c;" glyph-name="tag" d="M560.214 960c32.144-6.888 75.77-13.776 117.094-22.96 64.288-13.776 126.278-27.552 190.566-39.031 50.512-11.48 80.358-41.327 89.542-89.543 20.662-98.726 41.328-195.157 61.99-293.884 9.184-41.328-2.294-78.061-32.144-107.91-142.349-144.646-286.995-289.29-431.642-433.936-50.509-50.512-114.797-50.512-165.309 0-117.093 119.389-234.188 236.483-351.282 353.578-50.511 50.512-50.511 114.8 0 165.309 142.35 144.646 286.997 289.292 429.346 431.642 22.96 22.96 48.214 36.735 91.837 36.735zM950.531 482.438c-2.298 9.184-2.298 13.776-2.298 18.368-20.662 96.432-41.328 192.862-61.99 291.588-4.592 22.96-18.368 32.144-39.030 34.439-91.84 18.368-188.272 39.032-282.406 59.695-18.368 4.592-32.141 0-45.917-13.776-144.646-144.646-286.997-286.996-431.643-431.64-20.664-20.666-20.664-39.034 0-59.696 119.39-119.392 238.782-238.781 358.171-358.17 20.662-18.368 36.736-18.368 57.398 0 144.646 144.643 289.293 289.29 433.939 433.936 6.886 6.886 11.478 18.368 13.776 25.254zM686.496 404.374c0-119.389-98.726-218.115-218.118-218.115-119.389 0-215.82 98.726-218.116 218.115 0 119.392 98.727 218.118 218.116 218.118 121.686 0 218.118-96.432 218.118-218.118zM613.024 406.672c0 80.358-64.288 144.646-144.646 144.646s-144.646-64.288-144.646-144.646c0-80.358 66.586-146.941 146.944-144.646 78.061-2.294 142.349 64.288 142.349 144.646zM828.842 709.74c0-29.847-22.957-55.103-52.806-55.103-29.846 0-57.398 25.256-57.398 55.103s25.254 55.103 55.104 55.103c29.846 0 52.806-22.96 55.101-55.103z" />
<glyph unicode="&#xe91d;" glyph-name="copyright" d="M650.426 56.47c0-27.914 0-52.89 0-79.334 0-30.851-10.547-41.136-42.186-41.136-75.328 0-150.659 0-225.987 0-30.131 0-40.678 10.285-40.678 39.667 0 26.445 0 51.421 0 80.803-9.040 0-16.573 0-22.599 0-60.264 0-120.527 0-180.791 0-33.145 0-42.185 8.816-42.185 42.605 0 166.016 0 332.029 0 498.045 0 107.247 0 214.495 0 321.744 0 32.321 9.040 41.136 43.691 41.136 238.040 0 476.082 0 714.123 0 33.146 0 42.186-8.815 42.186-41.136 0-273.262 0-547.993 0-821.257 0-32.32-9.040-41.136-43.69-41.136-58.758 0-119.021 0-177.779 0-7.533 0-15.066 0-24.106 0zM341.574 116.707c0 20.566 1.507 41.136 0 60.234-1.507 24.976 4.518 47.014 16.573 69.050 19.584 36.73 36.157 74.928 57.251 110.189 39.171 61.702 58.755 127.814 49.715 201.274v1.469c1.507 61.702 37.667 96.964 100.944 96.964 34.65 0 69.302 0 103.955 0 25.61 0 39.171 11.753 39.171 30.852s-15.066 29.383-40.678 29.383c-6.029 0-10.547 0-16.573 0-112.995 0-227.494 0-340.49 0-51.224 0-91.902 36.729-93.409 83.742 0 19.099 10.546 33.79 27.119 35.26 16.572 2.938 30.132-7.346 34.652-26.445 6.026-27.914 13.559-33.79 43.69-33.79 117.514 0 235.030 0 352.544 0 55.744 0 96.422-39.667 96.422-91.088s-40.678-89.62-94.915-89.62c-37.667 0-75.331 0-112.995 0-27.12 0-37.664-10.282-37.664-36.726 0-29.382-1.507-57.299 0-86.682 0-13.222 3.011-26.445 9.037-38.198 33.146-67.581 69.306-135.162 102.451-202.742 6.026-13.222 9.037-29.382 10.544-44.074 1.507-23.507 0-47.014 0-71.99 63.277 0 123.542 0 182.298 0 0 261.51 0 521.552 0 781.591-225.987 0-448.963 0-673.446 0 0-261.511 0-521.549 0-781.591 63.277 2.941 122.034 2.941 183.804 2.941zM587.149-2.294c0 60.234 0 117.53 0 177.766-61.77 0-122.035 0-182.298 0 0-60.237 0-117.533 0-177.766 60.262 0 120.528 0 182.298 0zM496.752 378.214c-25.61-48.48-48.211-94.026-72.314-141.037 49.715 0 96.419 0 144.63 0-24.106 47.011-48.211 92.557-72.317 141.037z" />
<glyph unicode="&#xe91e;" glyph-name="users" d="M495.997-63.997c-152.038 0-301.586 0-453.627 0-39.879 0-49.849 15.171-34.894 53.098 17.447 45.51 34.894 93.549 52.342 139.062 22.432 63.21 64.804 103.664 127.116 118.832 59.819 15.171 104.684 48.042 149.547 91.024 34.896 35.398 49.85 68.266 47.357 118.835-2.493 63.21-22.432 116.304-67.296 161.818-59.819 63.208-74.774 136.532-39.879 214.912 32.402 78.38 94.714 118.835 179.457 121.363 37.389 0 74.774 2.528 109.67-5.057 77.264-12.642 129.606-58.153 152.038-134.005 24.925-73.324 7.478-141.59-47.357-199.745-44.864-45.51-62.31-101.136-67.296-164.346-2.493-48.038 12.461-80.909 47.357-113.776 44.864-42.982 89.728-78.381 149.549-93.552 62.31-15.168 104.682-58.154 129.606-121.363 17.446-48.038 37.389-96.077 54.835-144.118 12.461-30.339 0-48.038-32.403-50.566-152.038 7.584-304.080 7.584-456.122 7.584zM525.907 499.837c9.971 0 17.446 0 24.925 0 9.971 65.738 37.389 118.835 82.253 164.345 37.386 37.926 47.357 85.965 32.4 136.533-14.954 50.568-52.339 83.437-102.189 93.551-32.403 5.057-64.806 2.528-97.206 5.057-62.314 0-107.178-25.284-132.102-83.437-22.431-53.096-9.968-111.25 32.403-156.761 34.896-35.397 57.328-78.379 69.789-126.421 2.493-10.112 4.986-22.755 7.478-32.867 7.475 0 14.954 0 24.925 0 0 53.094 0 103.664 0 156.76 0 5.057-7.478 10.114-12.464 12.642-12.461 7.585-24.925 12.642-37.386 20.227-14.957 10.114-17.45 27.812-7.478 40.454s24.925 17.699 39.878 7.585c29.91-20.227 59.821-20.227 92.221 0 14.957 10.114 29.91 5.057 39.882-10.114 7.475-12.642 4.986-30.34-7.478-40.454-9.968-7.585-24.925-12.642-37.386-20.227-4.986-2.529-9.971-7.585-12.464-12.642 0-48.039 0-101.137 0-154.231zM72.28-0.787c134.593 0 261.708 0 391.317 0 0 73.325 0 144.118 0 222.499-29.91-32.867-57.328-60.682-84.746-88.493-17.446-17.699-32.4-17.699-49.846 0-14.956 15.171-32.404 27.811-44.866 45.51-19.94 27.811-42.372 30.342-74.774 17.699-34.894-12.643-67.296-30.342-84.744-65.738-19.94-40.454-34.894-85.968-52.342-131.478zM917.226-3.315c-14.957 37.926-29.91 75.853-42.374 111.251-14.954 40.454-44.864 65.738-82.25 80.909-12.464 5.056-27.418 10.112-42.371 12.64-7.478 0-17.45 0-22.432-5.056-22.432-22.755-44.864-45.51-67.296-68.266-17.45-17.699-32.403-17.699-49.85 0-24.925 25.283-49.85 50.566-74.774 75.85-2.493 2.528-7.478 5.059-12.464 10.115 0-75.853 0-146.646 0-219.971 132.102 2.528 261.709 2.528 393.811 2.528zM351.437 193.901c34.893 35.398 67.296 68.266 97.203 98.608-12.461 12.64-24.922 25.283-34.893 35.395-32.403-32.867-64.803-65.738-97.206-98.605 9.971-10.115 22.432-22.758 34.896-35.398zM635.578 196.429c14.954 12.643 27.414 25.283 39.878 35.398-34.896 35.395-67.296 68.266-99.699 101.136-12.461-12.643-24.925-25.286-37.386-37.926 34.893-32.87 67.296-68.269 97.206-98.608zM495.997 338.019c27.418 30.339 67.299 50.566 49.85 101.136-34.893 0-67.296 0-99.696 0-17.45-53.098 22.432-70.797 49.846-101.136zM867.376 722.331c-14.957 0-27.418 0-42.371 0-19.942 0-29.91 12.642-32.403 27.812 0 17.699 9.971 30.341 29.91 30.341 29.907 0 57.325 0 87.235 0 17.446 0 29.91-15.171 29.91-30.341 0-17.699-12.464-27.812-32.403-27.812-2.493 0-2.493 0-4.986 0-9.968 0-22.432 0-34.893 0zM122.125 722.334c-14.955 0-27.417 0-42.372 0-17.447 0-29.909 12.642-29.909 30.341 0 15.17 9.97 27.812 27.417 30.341 29.909 0 59.819 0 87.236 0 17.447 0 27.417-12.642 29.91-30.341 0-17.699-12.462-27.812-29.91-30.341-2.492 0-2.492 0-4.985 0-9.97 0-24.924 0-37.387 0zM216.845 886.683c0-27.812-22.432-42.983-39.879-32.869-27.417 17.699-54.834 32.869-79.759 53.096-12.462 10.114-14.955 25.284-4.985 37.926 7.477 15.17 19.94 20.227 34.894 10.114 27.417-15.17 52.342-32.869 77.267-50.568 7.477-5.057 9.97-12.642 12.462-17.699zM797.584 851.283c-4.982 5.057-17.446 10.114-19.939 20.227s0 27.812 7.478 32.869c24.925 20.227 54.835 37.926 82.25 53.096 12.464 7.585 27.418 2.528 32.403-10.114s4.986-30.341-2.493-35.397c-27.418-22.756-59.818-40.454-87.235-58.153-2.493-2.528-4.986-2.528-12.464-2.528zM216.842 616.141c-2.492-5.056-7.477-12.643-14.955-17.699-22.432-17.699-47.357-32.867-69.789-45.51-14.955-10.115-32.402-5.056-42.372 7.584-9.97 12.643-4.985 30.342 9.97 42.982 24.925 15.171 47.357 32.87 72.282 48.041 19.94 7.585 44.864-7.585 44.864-35.398zM904.758 580.746c0-27.814-22.432-42.982-39.878-32.87-27.418 15.171-54.835 32.87-79.76 50.57-12.461 10.112-14.954 25.283-4.982 37.923 9.968 15.172 22.432 17.7 37.386 10.115 24.925-15.171 52.342-32.87 77.267-50.57 4.986-2.528 7.475-12.64 9.968-15.168z" />
<glyph unicode="&#xe91f;" glyph-name="marketing" d="M64 448c0 123.405 0 244.185 0 367.59 0 91.897 54.511 144.41 149.905 144.41 188.063 0 376.127 0 564.191 0 95.392 0 149.904-52.513 149.904-144.41 0-244.185 0-490.995 0-735.18 0-91.898-54.512-144.41-149.904-144.41-188.064 0-376.128 0-564.191 0-95.394 0-149.905 52.512-149.905 144.41 0 123.405 0 244.186 0 367.59zM137.59 448c0-123.405 0-246.81 0-370.214 0-47.264 21.804-70.893 70.865-70.893 190.787 0 381.578 0 572.365 0 49.062 0 70.864 23.629 70.864 70.893 0 246.81 0 493.619 0 740.43 0 47.261-21.802 70.892-73.587 70.892-188.064 0-378.854 0-566.916 0-51.786 0-73.59-21.005-73.59-73.518 0-123.405 0-244.185 0-367.59zM630.915 329.843c0 23.629 0 47.261 0 68.266-89.942 0-177.158 0-267.104 0 0-23.629 0-44.637 0-68.266 10.902 0 24.531 0 35.434 0 21.805 0 38.157-13.13 38.157-34.134 0-47.261 0-94.522 0-141.782 0-23.632-16.352-36.762-38.157-36.762-49.059 0-98.12 0-144.454 0-24.53 0-38.157 13.13-38.157 36.762 0 47.261 0 94.522 0 139.158 0 23.629 13.628 34.131 38.157 36.758 10.902 0 21.804 0 35.432 0 0 31.507 0 60.39 0 89.27 0 44.637 8.177 52.515 54.51 52.515 38.16 0 76.317 0 114.474 0 0 31.507 0 63.014 0 94.522-32.707 0-65.411 0-98.118 0-35.434 0-46.335 13.13-46.335 44.637 0 42.010 0 84.020 0 126.030 0 31.508 13.628 44.636 46.335 44.636 92.669 0 188.061 0 280.73 0 32.707 0 46.336-13.128 46.336-44.636 0-42.010 0-86.646 0-128.657 0-28.88-13.629-42.010-43.61-42.010-35.43 0-68.138 0-103.571 0 0-31.507 0-63.014 0-94.522 40.883 0 81.766 0 119.926 0 40.883 0 51.786-10.502 51.786-49.888 0-28.883 0-57.763 0-86.646 0-2.627 0-2.627 2.723-7.878 10.902 0 21.805 0 32.707 0 21.805 0 38.157-13.126 38.157-34.131 0-47.264 0-97.149 0-144.41 0-21.008-13.626-34.134-38.157-34.134-49.059 0-98.118 0-144.454 0-24.528 0-38.157 15.754-38.157 39.386 0 44.634 0 91.894 0 136.531 0 26.256 13.629 36.758 40.883 39.386 0 0 10.902 0 24.528 0zM385.616 639.667c73.59 0 147.181 0 220.771 0 0 23.632 0 44.637 0 68.268-73.59 0-147.181 0-220.771 0 0-23.631 0-44.636 0-68.268zM287.497 256.326c0-23.632 0-44.637 0-68.269 24.53 0 46.333 0 70.864 0 0 23.632 0 44.637 0 68.269-24.531 0-46.334 0-70.864 0zM704.506 256.326c-24.528 0-49.059 0-70.864 0 0-23.632 0-47.264 0-68.269 24.531 0 46.336 0 70.864 0 0 23.632 0 44.637 0 68.269z" />
<glyph unicode="&#xe920;" glyph-name="speaker1" d="M46.21 426.973c-34.007 0-63.892 0-93.776 0-37.098 1.043-48.434 12.515-48.434 49.024 0 56.33 0 113.699 0 170.028 0 30.25 12.366 43.811 43.281 43.811 31.946 0 62.861 0 98.929 0 0 11.474 0 22.948 0 33.38 0 28.164 8.244 38.595 36.068 44.854 155.607 33.38 311.213 66.759 466.82 99.096 8.246 2.086 16.49 4.172 25.763 5.216 24.733 4.172 43.28 10.431 56.678 37.552 21.642 41.724 72.134 58.414 117.478 44.854 45.341-13.56 77.286-53.199 77.286-100.139 1.030-200.277 1.030-400.555 0-600.833 0-50.067-35.037-91.792-81.408-102.224-48.435-11.475-97.901 10.432-119.539 56.326-7.216 14.605-16.49 21.907-30.915 23.994-26.794 5.216-54.618 10.432-83.472 16.688-28.854-83.446-87.594-129.344-177.248-132.474 0-17.734 1.030-34.422 0-51.114-3.091-57.37-47.403-98.051-103.050-97.008-54.617 1.043-96.868 43.811-97.899 100.138-1.030 78.234-1.030 155.424 0 233.658 0 20.861-3.092 34.422-26.793 34.422-1.030 0-3.092 1.043-4.122 1.043-51.525 11.475-53.587 13.562-53.587 66.758-2.061 5.216-2.061 12.518-2.061 22.95zM610.928 806.665c-164.88-35.466-327.701-69.889-491.552-104.311 0-99.096 0-197.147 0-296.244 163.851-34.422 327.702-69.888 491.552-104.31 0 167.942 0 334.838 0 504.866zM755.2 554.23c0 92.838 0 185.675 0 278.512 0 37.552-10.304 54.242-35.037 54.242s-36.067-16.69-36.067-53.199c0-45.897 0-90.751 0-136.648 0-142.908 0-286.856 0-429.762 0-18.778 4.122-35.466 22.669-43.811 25.763-10.432 48.435 8.346 48.435 39.638 0 97.008 0 194.019 0 291.027zM202.847 313.274c0-79.277 0-156.467 0-234.701 0-26.080 10.305-38.595 28.854-38.595 19.58-1.043 30.915 12.515 30.915 39.638 0 56.326 0 112.656 0 167.939-1.030 55.286-1.030 55.286-59.77 65.718zM-23.864 616.819c0-39.638 0-77.19 0-115.786 23.702 0 45.342 0 68.014 0 0 39.638 0 77.19 0 115.786-22.671 0-44.312 0-68.014 0zM334.752 192.272c46.374-6.259 95.837 29.206 99.958 73.018-32.976 7.302-65.952 13.562-99.958 20.861 0-33.379 0-63.629 0-93.878zM1009.738 594.909c24.733 0 48.432 1.043 73.165 0 22.672-1.043 37.101-14.602 37.101-34.422 0-19.818-13.398-36.509-36.070-36.509-49.462-1.043-98.928-1.043-149.424 0-22.669 0-38.128 17.734-37.098 37.552 1.030 19.821 16.49 33.379 38.128 34.422 24.733-1.043 49.466-1.043 74.198-1.043zM1040.653 931.836c7.213-6.259 22.669-13.56 25.76-25.035 4.125-11.474 1.030-30.25-7.213-38.595-23.702-23.992-49.462-43.811-76.256-63.63-14.429-11.474-31.946-9.388-45.344 4.172-12.365 12.517-15.456 31.293-3.091 43.811 27.824 27.121 58.739 50.069 88.624 74.061 3.091 3.129 8.243 3.129 17.52 5.215zM1071.565 226.698c-1.030-32.336-32.976-49.027-55.648-32.336-26.794 19.818-52.557 41.725-76.256 64.672-14.429 13.562-14.429 32.336-2.064 47.984 12.368 14.605 29.885 18.774 44.314 7.302 27.824-20.864 54.618-43.811 80.381-67.802 6.182-5.216 7.213-15.648 9.274-19.821z" />
<glyph unicode="&#xe921;" glyph-name="speaker" d="M46.21 426.973c-34.007 0-63.892 0-93.776 0-37.098 1.043-48.434 12.515-48.434 49.024 0 56.33 0 113.699 0 170.028 0 30.25 12.366 43.811 43.281 43.811 31.946 0 62.861 0 98.929 0 0 11.474 0 22.948 0 33.38 0 28.164 8.244 38.595 36.068 44.854 155.607 33.38 311.213 66.759 466.82 99.096 8.246 2.086 16.49 4.172 25.763 5.216 24.733 4.172 43.28 10.431 56.678 37.552 21.642 41.724 72.134 58.414 117.478 44.854 45.341-13.56 77.286-53.199 77.286-100.139 1.030-200.277 1.030-400.555 0-600.833 0-50.067-35.037-91.792-81.408-102.224-48.435-11.475-97.901 10.432-119.539 56.326-7.216 14.605-16.49 21.907-30.915 23.994-26.794 5.216-54.618 10.432-83.472 16.688-28.854-83.446-87.594-129.344-177.248-132.474 0-17.734 1.030-34.422 0-51.114-3.091-57.37-47.403-98.051-103.050-97.008-54.617 1.043-96.868 43.811-97.899 100.138-1.030 78.234-1.030 155.424 0 233.658 0 20.861-3.092 34.422-26.793 34.422-1.030 0-3.092 1.043-4.122 1.043-51.525 11.475-53.587 13.562-53.587 66.758-2.061 5.216-2.061 12.518-2.061 22.95zM610.928 806.665c-164.88-35.466-327.701-69.889-491.552-104.311 0-99.096 0-197.147 0-296.244 163.851-34.422 327.702-69.888 491.552-104.31 0 167.942 0 334.838 0 504.866zM755.2 554.23c0 92.838 0 185.675 0 278.512 0 37.552-10.304 54.242-35.037 54.242s-36.067-16.69-36.067-53.199c0-45.897 0-90.751 0-136.648 0-142.908 0-286.856 0-429.762 0-18.778 4.122-35.466 22.669-43.811 25.763-10.432 48.435 8.346 48.435 39.638 0 97.008 0 194.019 0 291.027zM202.847 313.274c0-79.277 0-156.467 0-234.701 0-26.080 10.305-38.595 28.854-38.595 19.58-1.043 30.915 12.515 30.915 39.638 0 56.326 0 112.656 0 167.939-1.030 55.286-1.030 55.286-59.77 65.718zM-23.864 616.819c0-39.638 0-77.19 0-115.786 23.702 0 45.342 0 68.014 0 0 39.638 0 77.19 0 115.786-22.671 0-44.312 0-68.014 0zM334.752 192.272c46.374-6.259 95.837 29.206 99.958 73.018-32.976 7.302-65.952 13.562-99.958 20.861 0-33.379 0-63.629 0-93.878zM1009.738 594.909c24.733 0 48.432 1.043 73.165 0 22.672-1.043 37.101-14.602 37.101-34.422 0-19.818-13.398-36.509-36.070-36.509-49.462-1.043-98.928-1.043-149.424 0-22.669 0-38.128 17.734-37.098 37.552 1.030 19.821 16.49 33.379 38.128 34.422 24.733-1.043 49.466-1.043 74.198-1.043zM1040.653 931.836c7.213-6.259 22.669-13.56 25.76-25.035 4.125-11.474 1.030-30.25-7.213-38.595-23.702-23.992-49.462-43.811-76.256-63.63-14.429-11.474-31.946-9.388-45.344 4.172-12.365 12.517-15.456 31.293-3.091 43.811 27.824 27.121 58.739 50.069 88.624 74.061 3.091 3.129 8.243 3.129 17.52 5.215zM1071.565 226.698c-1.030-32.336-32.976-49.027-55.648-32.336-26.794 19.818-52.557 41.725-76.256 64.672-14.429 13.562-14.429 32.336-2.064 47.984 12.368 14.605 29.885 18.774 44.314 7.302 27.824-20.864 54.618-43.811 80.381-67.802 6.182-5.216 7.213-15.648 9.274-19.821z" />
</font>
</defs>
</svg>
