<svg width="173" height="53" viewBox="0 0 173 53" fill="none" xmlns="http://www.w3.org/2000/svg">
<path d="M64.3866 39V12.9848H74.3456C76.2256 12.9848 77.788 13.2812 79.0329 13.8739C80.2863 14.4583 81.222 15.2585 81.8402 16.2748C82.4669 17.291 82.7802 18.4427 82.7802 19.7299C82.7802 20.7885 82.577 21.6946 82.1705 22.4483C81.764 23.1935 81.2178 23.799 80.5318 24.2648C79.8459 24.7306 79.0795 25.0651 78.2326 25.2683V25.5224C79.1557 25.5732 80.0407 25.8569 80.8875 26.3735C81.7428 26.8816 82.4415 27.6014 82.9835 28.5329C83.5255 29.4645 83.7964 30.5908 83.7964 31.9119C83.7964 33.2584 83.4704 34.4694 82.8183 35.5449C82.1663 36.6119 81.1839 37.4545 79.8713 38.0727C78.5587 38.6909 76.9073 39 74.9172 39H64.3866ZM69.0994 35.0621H74.1678C75.8784 35.0621 77.1106 34.7361 77.8643 34.084C78.6264 33.4235 79.0075 32.5766 79.0075 31.5435C79.0075 30.7728 78.817 30.0784 78.4359 29.4602C78.0548 28.8336 77.5128 28.3424 76.8099 27.9867C76.107 27.6226 75.2687 27.4405 74.2948 27.4405H69.0994V35.0621ZM69.0994 24.0489H73.7613C74.5742 24.0489 75.3068 23.9007 75.9588 23.6043C76.6109 23.2994 77.1233 22.8717 77.4959 22.3213C77.877 21.7624 78.0675 21.1018 78.0675 20.3397C78.0675 19.3319 77.7118 18.502 77.0005 17.8499C76.2976 17.1978 75.2517 16.8718 73.8629 16.8718H69.0994V24.0489ZM87.693 39V19.4886H92.1517V22.7405H92.3549C92.7106 21.6142 93.3203 20.7461 94.1841 20.1364C95.0564 19.5182 96.0514 19.2091 97.1693 19.2091C97.4233 19.2091 97.707 19.2218 98.0204 19.2472C98.3422 19.2641 98.6089 19.2938 98.8206 19.3361V23.5662C98.6259 23.4984 98.3168 23.4391 97.8933 23.3883C97.4784 23.329 97.0761 23.2994 96.6866 23.2994C95.8482 23.2994 95.0945 23.4815 94.4255 23.8456C93.7649 24.2013 93.2441 24.6967 92.863 25.3318C92.482 25.967 92.2914 26.6995 92.2914 27.5294V39H87.693ZM107.141 39.3938C105.905 39.3938 104.791 39.1736 103.8 38.7332C102.818 38.2844 102.039 37.6239 101.463 36.7516C100.895 35.8794 100.612 34.8039 100.612 33.5251C100.612 32.4242 100.815 31.5138 101.221 30.794C101.628 30.0742 102.183 29.4983 102.886 29.0664C103.588 28.6346 104.38 28.3085 105.261 28.0883C106.15 27.8597 107.069 27.6945 108.017 27.5929C109.161 27.4744 110.088 27.3685 110.799 27.2754C111.511 27.1737 112.027 27.0213 112.349 26.8181C112.679 26.6063 112.844 26.2803 112.844 25.8399V25.7637C112.844 24.8068 112.561 24.0658 111.993 23.5407C111.426 23.0157 110.609 22.7532 109.542 22.7532C108.415 22.7532 107.522 22.9988 106.861 23.4899C106.209 23.9811 105.769 24.5612 105.54 25.2302L101.247 24.6205C101.586 23.4349 102.145 22.4441 102.924 21.648C103.703 20.8435 104.655 20.2423 105.782 19.8442C106.908 19.4378 108.153 19.2345 109.516 19.2345C110.456 19.2345 111.392 19.3446 112.324 19.5648C113.255 19.785 114.106 20.1491 114.877 20.6572C115.648 21.1569 116.266 21.8386 116.732 22.7024C117.206 23.5662 117.443 24.6459 117.443 25.9416V39H113.022V36.3197H112.87C112.59 36.8617 112.197 37.3698 111.689 37.844C111.189 38.3098 110.558 38.6867 109.796 38.9746C109.042 39.2541 108.157 39.3938 107.141 39.3938ZM108.335 36.0149C109.258 36.0149 110.058 35.8328 110.736 35.4686C111.413 35.096 111.934 34.6048 112.298 33.9951C112.671 33.3854 112.857 32.7206 112.857 32.0008V29.7016C112.713 29.8201 112.468 29.9302 112.12 30.0319C111.782 30.1335 111.401 30.2224 110.977 30.2986C110.554 30.3748 110.135 30.4426 109.72 30.5019C109.305 30.5611 108.945 30.6119 108.64 30.6543C107.954 30.7474 107.34 30.8999 106.798 31.1116C106.256 31.3233 105.828 31.6197 105.515 32.0008C105.202 32.3734 105.045 32.8561 105.045 33.4489C105.045 34.2957 105.354 34.9351 105.972 35.367C106.59 35.7989 107.378 36.0149 108.335 36.0149ZM122.067 39V19.4886H126.665V39H122.067ZM124.379 16.7194C123.65 16.7194 123.024 16.478 122.499 15.9953C121.974 15.5041 121.711 14.9156 121.711 14.2296C121.711 13.5352 121.974 12.9466 122.499 12.4639C123.024 11.9728 123.65 11.7272 124.379 11.7272C125.115 11.7272 125.742 11.9728 126.259 12.4639C126.784 12.9466 127.046 13.5352 127.046 14.2296C127.046 14.9156 126.784 15.5041 126.259 15.9953C125.742 16.478 125.115 16.7194 124.379 16.7194ZM135.992 27.5675V39H131.394V19.4886H135.789V22.804H136.017C136.466 21.7115 137.182 20.8435 138.164 20.1999C139.155 19.5563 140.379 19.2345 141.835 19.2345C143.182 19.2345 144.355 19.5224 145.354 20.0983C146.362 20.6742 147.141 21.5083 147.691 22.6007C148.25 23.6932 148.525 25.0185 148.517 26.5767V39H143.919V27.2881C143.919 25.9839 143.58 24.9635 142.902 24.2267C142.233 23.4899 141.306 23.1216 140.12 23.1216C139.316 23.1216 138.6 23.2994 137.974 23.6551C137.356 24.0023 136.869 24.5062 136.513 25.1667C136.166 25.8272 135.992 26.6275 135.992 27.5675ZM161.829 39.3811C159.873 39.3811 158.184 38.9746 156.761 38.1616C155.347 37.3402 154.259 36.18 153.496 34.6811C152.734 33.1737 152.353 31.3995 152.353 29.3586C152.353 27.3516 152.734 25.5901 153.496 24.0743C154.267 22.5499 155.343 21.3643 156.723 20.5175C158.103 19.6622 159.725 19.2345 161.588 19.2345C162.791 19.2345 163.925 19.4293 164.992 19.8188C166.068 20.1999 167.016 20.7927 167.838 21.5972C168.668 22.4017 169.32 23.4264 169.794 24.6713C170.268 25.9077 170.505 27.3812 170.505 29.0918V30.5019H154.513V27.4024H166.098C166.089 26.5217 165.899 25.7383 165.526 25.0524C165.153 24.358 164.633 23.8117 163.964 23.4137C163.303 23.0157 162.532 22.8167 161.652 22.8167C160.712 22.8167 159.886 23.0453 159.175 23.5026C158.463 23.9515 157.909 24.5443 157.511 25.281C157.121 26.0093 156.922 26.8096 156.914 27.6818V30.3875C156.914 31.5223 157.121 32.4962 157.536 33.3092C157.951 34.1137 158.531 34.7319 159.276 35.1638C160.021 35.5872 160.894 35.7989 161.893 35.7989C162.562 35.7989 163.168 35.7058 163.709 35.5194C164.251 35.3247 164.721 35.041 165.119 34.6684C165.518 34.2957 165.818 33.8342 166.021 33.2838L170.315 33.7665C170.044 34.9012 169.527 35.8921 168.765 36.7389C168.011 37.5773 167.046 38.2294 165.869 38.6951C164.692 39.1524 163.345 39.3811 161.829 39.3811Z" fill="white"/>
<g clip-path="url(#clip0_50_39)">
<path d="M3.54686 30.659C3.91779 31.0764 4.10325 31.6099 4.08007 32.1201C4.05689 32.6535 3.84824 33.1637 3.43095 33.5348C2.59636 34.3001 1.3213 34.2537 0.556262 33.4188C0.185335 33.0014 -0.000128871 32.468 0.0230541 31.9577C0.046237 31.4475 0.254883 30.9141 0.672176 30.543C1.48358 29.7545 2.78182 29.8241 3.54686 30.659Z" fill="#761FE3"/>
<path d="M32.1545 17.7641C32.1545 17.8105 32.1313 17.8801 32.1313 17.9265C32.1082 18.3903 32.2009 18.8542 32.3864 19.2716L26.0806 25.0928L19.7748 30.914C19.3112 30.6588 18.8012 30.5429 18.2911 30.5429L11.4753 10.6674C11.7535 10.5051 12.0317 10.3195 12.2867 10.0876C12.5418 9.85568 12.7504 9.60057 12.9127 9.32227L32.1545 17.7641Z" fill="#761FE3"/>
<path d="M5.72617 33.2568L15.4398 34.1613C15.5557 34.6484 15.7876 35.1122 16.1585 35.5065C16.5294 35.9239 16.9931 36.179 17.4799 36.3414L17.6886 44.1107L17.7813 47.4967C17.5031 47.6126 17.2249 47.775 16.9931 47.9605L4.84521 34.7643C5.23932 34.3237 5.5407 33.8134 5.72617 33.2568Z" fill="#761FE3"/>
<path opacity="0.5" d="M9.50492 11.1323C9.57447 11.1323 9.62083 11.1323 9.69038 11.1323L16.5525 31.1238C16.483 31.1701 16.4134 31.2397 16.3207 31.3093C16.0193 31.5876 15.7643 31.9355 15.602 32.3066L5.86519 31.4021C5.74928 30.6599 5.40154 29.9642 4.89151 29.3844C4.38149 28.851 3.75555 28.4567 3.06006 28.2712L8.69351 10.9932C8.94853 11.0859 9.22672 11.1323 9.50492 11.1323Z" fill="#761FE3"/>
<path d="M21.2588 33.8134C21.3052 33.3032 21.2356 32.7466 21.0038 32.2595L33.6385 20.6172C34.1021 20.8723 34.6354 21.0115 35.1454 20.9883L42.448 41.4899C42.1698 41.6291 41.9148 41.8146 41.683 42.0465C41.4511 42.2553 41.2425 42.5104 41.0802 42.7655L21.2588 33.8134Z" fill="#761FE3"/>
<path d="M31.7374 4.6842C32.317 5.31038 33.0588 5.72784 33.8934 5.86699V6.19168L34.1021 15.2365C33.7311 15.3757 33.3834 15.5612 33.082 15.8395C33.0125 15.9091 32.9429 15.9787 32.8734 16.0482L26.2894 13.1724L13.5156 7.58319C13.5156 7.51362 13.5388 7.46723 13.5388 7.39766C13.5388 7.14254 13.5388 6.86424 13.4924 6.60913L30.7405 2.62012C30.8565 3.38545 31.2042 4.1044 31.7374 4.6842Z" fill="#761FE3"/>
<path opacity="0.5" d="M48.8464 17.5332C48.4755 17.8578 48.1973 18.2521 47.9886 18.6928L37.9736 17.4636C37.8809 16.9534 37.6259 16.4431 37.2549 16.0257C36.884 15.6314 36.4203 15.3531 35.9335 15.1908L35.7249 5.86762V5.75166C36.2812 5.58931 36.7913 5.28782 37.2086 4.89355L48.8464 17.5332Z" fill="#761FE3"/>
<path d="M44.488 41.0258C44.4185 41.0258 44.3258 41.0258 44.2562 41.0258L36.9072 20.3849C36.9768 20.3386 37.0463 20.2922 37.0927 20.2226C37.3941 19.9443 37.6027 19.6428 37.765 19.2949L47.5946 20.5009C47.6177 21.4518 47.9655 22.3331 48.6146 23.0288C49.1015 23.5622 49.7042 23.9333 50.3765 24.1188L45.2067 41.1185C44.9981 41.0722 44.7431 41.0258 44.488 41.0258Z" fill="#761FE3"/>
<path opacity="0.5" d="M21.2585 48.2612C20.7949 47.7742 20.2153 47.4495 19.6125 47.3103L19.3344 36.2709C19.7053 36.1318 20.053 35.9463 20.3544 35.668C20.4239 35.6216 20.4703 35.552 20.5399 35.4824L40.5004 44.5041C40.5004 44.5737 40.4772 44.6664 40.4772 44.736C40.4772 44.9911 40.4772 45.2462 40.5236 45.5013L22.0004 49.6295C21.8613 49.1193 21.6295 48.6554 21.2585 48.2612Z" fill="#761FE3"/>
<path opacity="0.5" d="M11.6842 7.32872C11.661 7.86213 11.4524 8.37235 11.0351 8.74342C10.2005 9.50876 8.92542 9.46237 8.16039 8.62746C7.78946 8.21001 7.604 7.67659 7.62718 7.16637C7.65036 6.63296 7.85901 6.12273 8.2763 5.75166C9.11089 4.98633 10.3859 5.03271 11.151 5.86762C11.5451 6.28508 11.7074 6.81849 11.6842 7.32872Z" fill="#761FE3"/>
<path d="M35.9799 3.54811C35.1453 4.31344 33.8702 4.26706 33.1052 3.43215C32.7343 3.0147 32.5488 2.48128 32.572 1.97106C32.5952 1.46084 32.8038 0.927422 33.2211 0.556351C34.0557 -0.208983 35.3308 -0.1626 36.0958 0.67231C36.4667 1.08977 36.6522 1.62318 36.629 2.1334C36.6058 2.64363 36.374 3.15385 35.9799 3.54811Z" fill="#761FE3"/>
<path opacity="0.5" d="M49.9823 21.7769C49.6114 21.3594 49.4259 20.826 49.4491 20.3158C49.4723 19.7824 49.6809 19.2721 50.0982 18.9011C50.9328 18.1357 52.2078 18.1821 52.9729 19.017C53.3438 19.4345 53.5293 19.9679 53.5061 20.4781C53.4829 21.0115 53.2743 21.5218 52.857 21.8928C52.0456 22.6582 50.7473 22.6118 49.9823 21.7769Z" fill="#761FE3"/>
<path d="M42.3088 44.8295C42.332 44.296 42.5406 43.7858 42.9579 43.4147C43.7925 42.6494 45.0676 42.6958 45.8326 43.5307C46.2035 43.9482 46.389 44.4816 46.3658 44.9918C46.3426 45.5252 46.134 46.0354 45.7167 46.4065C44.8821 47.1718 43.607 47.1255 42.842 46.2906C42.4479 45.8731 42.2856 45.3397 42.3088 44.8295Z" fill="#761FE3"/>
<path opacity="0.5" d="M17.5495 48.8884C18.3841 48.123 19.6591 48.1694 20.4242 49.0043C20.7951 49.4218 20.9806 49.9552 20.9574 50.4654C20.9342 50.9757 20.7256 51.5091 20.3083 51.8801C19.4737 52.6455 18.1986 52.5991 17.4336 51.7642C17.0627 51.3467 16.8772 50.8133 16.9004 50.3031C16.9236 49.7929 17.1554 49.2595 17.5495 48.8884Z" fill="#761FE3"/>
</g>
<defs>
<clipPath id="clip0_50_39">
<rect width="53.5294" height="52.437" fill="white"/>
</clipPath>
</defs>
</svg>
